{
	"asset": {
		"generator": "Blocks 2.0.1_SVR_RC5",
		"version": "1.1",
		"copyright": "Unknown"
	},
	"buffers": {
		"model": {
			"byteLength": 223052,
			"type": "arraybuffer",
			"uri": "model.bin"
		}
	},
	"accessors": {
		"accessor_position_m0-PolyPaper10_-223368": {
			"bufferView": "vec3BufferView",
			"byteOffset": 0,
			"byteStride": 12,
			"componentType": 5126,
			"count": 5192,
			"max": [ -0.2808233, 1.364013, -0.3876423 ],
			"min": [ -0.9436604, 0.8622686, -1.072944 ],
			"type": "VEC3"
		 },
		"accessor_normal_m0-PolyPaper10_-223368": {
			"bufferView": "vec3BufferView",
			"byteOffset": 62304,
			"byteStride": 12,
			"componentType": 5126,
			"count": 5192,
			"max": [ 0.9990408, 0.9999682, 0.999542 ],
			"min": [ -0.9987351, -0.9998949, -0.9995421 ],
			"type": "VEC3"
		 },
		"accessor_color_m0-PolyPaper10_-223368": {
			"bufferView": "vec4BufferView",
			"byteOffset": 0,
			"byteStride": 16,
			"componentType": 5126,
			"count": 5192,
			"max": [ 1, 0.9215686, 0.8156863, 1 ],
			"min": [ 0.2980392, 0.2627451, 0, 1 ],
			"type": "VEC4"
		 },
		"accessor_indices_0_m0-PolyPaper10_-223368": {
			"bufferView": "ushortBufferView",
			"byteOffset": 0,
			"byteStride": 0,
			"componentType": 5123,
			"count": 7686,
			"max": [ 5191 ],
			"min": [ 0 ],
			"type": "SCALAR"
		 }
	},
	"bufferViews": {
		"ushortBufferView": {
			"buffer": "model",
			"byteLength": 15372,
			"byteOffset": 0,
			"target": 34963
		},
		"vec3BufferView": {
			"buffer": "model",
			"byteLength": 124608,
			"byteOffset": 15372,
			"target": 34962
		},
		"vec4BufferView": {
			"buffer": "model",
			"byteLength": 83072,
			"byteOffset": 139980,
			"target": 34962
		}
	},
	"meshes": {
		"mesh_m0-PolyPaper10_-223368": {
			"name": "mesh_m0-PolyPaper10_-223368",
			"primitives": [
				{
					"attributes": {
						"POSITION": "accessor_position_m0-PolyPaper10_-223368",
						"NORMAL": "accessor_normal_m0-PolyPaper10_-223368",
						"COLOR": "accessor_color_m0-PolyPaper10_-223368"
					},
					"indices": "accessor_indices_0_m0-PolyPaper10_-223368",
					"material": "material_mat10",
					"mode": 4
				}
			]
		}
	},
	"shaders": {
		"vertex_mat10": {
			"type": 35633,
			"uri": "https://vr.google.com/shaders/w/vs.glsl"
		},
		"fragment_mat10": {
			"type": 35632,
			"uri": "https://vr.google.com/shaders/w/fs.glsl"
		}
	},
	"programs": {
		"program_mat10": {
			"attributes": [
				"a_position",
				"a_normal",
				"a_color"				
			],
			"vertexShader": "vertex_mat10",
			"fragmentShader": "fragment_mat10"
		}
	},
	"techniques": {
		"technique_mat10": {
			"program": "program_mat10",
			"extras": {"gvrss" : "https://vr.google.com/shaders/w/gvrss/paper.json"},
			"parameters": {
				"position": {
					"type": 35665,
					"semantic": "POSITION"
				},
				"normal": {
					"type": 35665,
					"semantic": "NORMAL"
				},
				"color": {
					"type": 35666,
					"semantic": "COLOR"
				},
				"modelViewMatrix": {
					"type": 35676,
					"semantic": "MODELVIEW"
				},
				"projectionMatrix": {
					"type": 35676,
					"semantic": "PROJECTION"
				},
				"normalMatrix": {
					"type": 35675,
					"semantic": "MODELVIEWINVERSETRANSPOSE"
				},
				"color": {
					"type": 35666
				},
				"roughness": {
					"type": 5126
				},
				"metallic": {
					"type": 5126
				},
				"light0Pos": {
					"type": 35666
				},
				"light0Color": {
					"type": 35666
				},
				"light1Pos": {
					"type": 35666
				},
				"light1Color": {
					"type": 35666
				}				
			},
			"attributes": {
				"a_position": "position",
				"a_normal": "normal",
				"a_color": "color"				
			},
			"uniforms": {
				"u_modelViewMatrix": "modelViewMatrix",
				"u_projectionMatrix": "projectionMatrix",
				"u_normalMatrix": "normalMatrix",
				"u_color": "color",
				"u_roughness": "roughness",
				"u_metallic": "metallic",
				"u_light0Pos": "light0Pos",
				"u_light0Color": "light0Color",
				"u_light1Pos": "light1Pos",
				"u_light1Color": "light1Color"				
			},
			"states": {
				"enable": [
					2929,
					2884
				],
				"functions": {
					"cullFace": [1029]
				}
			}
		}
	},
	"materials": {
		"material_mat10": {
			"technique": "technique_mat10",
			"values": {
				"color": [0.2980392, 0.6862745, 0.3137255, 1],
				"roughness": 0.72,
				"metallic": 0,
				"light0Pos": [-0.02, 4.11, -0.54, 0],
				"light0Color": [0.8, 0.8, 0.8, 0],
				"light1Pos": [0.02, -4.11, 0.54, 0],
				"light1Color": [0.64, 0.64, 0.64, 0]				
			},
			"name": "material_mat10"
		}
	},
	"nodes": {
		"node_MeshObject1875890496-PolyPaper10": {
			"name": "node_MeshObject1875890496-PolyPaper10",
			"meshes": [
				"mesh_m0-PolyPaper10_-223368"
			],
			"matrix": [1, 0, 0, 0, 0, 1, 0, 0, 0, 0, 1, 0, 0, 0, 0, 1]
		}
	},
	"scene": "defaultScene",
	"scenes": {
		"defaultScene": {
			"nodes": [
				"node_MeshObject1875890496-PolyPaper10"
			],
			"extras": {

			}
		}
	}
}