{
	"asset": {
		"generator": "Blocks 2.0.1_SVR_RC4",
		"version": "1.1",
		"copyright": "Unknown"
	},
	"buffers": {
		"model": {
			"byteLength": 112152,
			"type": "arraybuffer",
			"uri": "model.bin"
		}
	},
	"accessors": {
		"accessor_position_m0-PolyPaper14_-81282": {
			"bufferView": "vec3BufferView",
			"byteOffset": 0,
			"byteStride": 12,
			"componentType": 5126,
			"count": 2040,
			"max": [ 3.262281, 1.254223, -0.5626224 ],
			"min": [ 2.973531, 0.3780313, -0.867234 ],
			"type": "VEC3"
		 },
		"accessor_normal_m0-PolyPaper14_-81282": {
			"bufferView": "vec3BufferView",
			"byteOffset": 24480,
			"byteStride": 12,
			"componentType": 5126,
			"count": 2040,
			"max": [ 0.9969303, 0.9998467, 0.9968824 ],
			"min": [ -0.9969302, -0.9998468, -0.9968825 ],
			"type": "VEC3"
		 },
		"accessor_color_m0-PolyPaper14_-81282": {
			"bufferView": "vec4BufferView",
			"byteOffset": 0,
			"byteStride": 16,
			"componentType": 5126,
			"count": 2040,
			"max": [ 1, 1, 1, 1 ],
			"min": [ 0.2980392, 0.2627451, 0.1333333, 1 ],
			"type": "VEC4"
		 },
		"accessor_indices_0_m0-PolyPaper14_-81282": {
			"bufferView": "ushortBufferView",
			"byteOffset": 0,
			"byteStride": 0,
			"componentType": 5123,
			"count": 2892,
			"max": [ 2039 ],
			"min": [ 0 ],
			"type": "SCALAR"
		 },
		"accessor_position_m1-PolyGem25_-45166": {
			"bufferView": "vec3BufferView",
			"byteOffset": 48960,
			"byteStride": 12,
			"componentType": 5126,
			"count": 576,
			"max": [ 3.207466, 1.172189, -0.663341 ],
			"min": [ 3.068719, 1.133676, -0.8020084 ],
			"type": "VEC3"
		 },
		"accessor_normal_m1-PolyGem25_-45166": {
			"bufferView": "vec3BufferView",
			"byteOffset": 55872,
			"byteStride": 12,
			"componentType": 5126,
			"count": 576,
			"max": [ 0.9604436, 0.9721226, 0.9681684 ],
			"min": [ -0.9604446, -0.9721227, -0.9681678 ],
			"type": "VEC3"
		 },
		"accessor_color_m1-PolyGem25_-45166": {
			"bufferView": "vec4BufferView",
			"byteOffset": 32640,
			"byteStride": 16,
			"componentType": 5126,
			"count": 576,
			"max": [ 1, 1, 1, 1 ],
			"min": [ 1, 1, 1, 1 ],
			"type": "VEC4"
		 },
		"accessor_indices_0_m1-PolyGem25_-45166": {
			"bufferView": "ushortBufferView",
			"byteOffset": 5784,
			"byteStride": 0,
			"componentType": 5123,
			"count": 864,
			"max": [ 575 ],
			"min": [ 0 ],
			"type": "SCALAR"
		 }
	},
	"bufferViews": {
		"ushortBufferView": {
			"buffer": "model",
			"byteLength": 7512,
			"byteOffset": 0,
			"target": 34963
		},
		"vec3BufferView": {
			"buffer": "model",
			"byteLength": 62784,
			"byteOffset": 7512,
			"target": 34962
		},
		"vec4BufferView": {
			"buffer": "model",
			"byteLength": 41856,
			"byteOffset": 70296,
			"target": 34962
		}
	},
	"meshes": {
		"mesh_m0-PolyPaper14_-81282": {
			"name": "mesh_m0-PolyPaper14_-81282",
			"primitives": [
				{
					"attributes": {
						"POSITION": "accessor_position_m0-PolyPaper14_-81282",
						"NORMAL": "accessor_normal_m0-PolyPaper14_-81282",
						"COLOR": "accessor_color_m0-PolyPaper14_-81282"
					},
					"indices": "accessor_indices_0_m0-PolyPaper14_-81282",
					"material": "material_mat14",
					"mode": 4
				}
			]
		},
		"mesh_m1-PolyGem25_-45166": {
			"name": "mesh_m1-PolyGem25_-45166",
			"primitives": [
				{
					"attributes": {
						"POSITION": "accessor_position_m1-PolyGem25_-45166",
						"NORMAL": "accessor_normal_m1-PolyGem25_-45166",
						"COLOR": "accessor_color_m1-PolyGem25_-45166"
					},
					"indices": "accessor_indices_0_m1-PolyGem25_-45166",
					"material": "material_mat25",
					"mode": 4
				}
			]
		}
	},
	"shaders": {
		"vertex_mat14": {
			"type": 35633,
			"uri": "https://vr.google.com/shaders/w/vs.glsl"
		},
		"fragment_mat14": {
			"type": 35632,
			"uri": "https://vr.google.com/shaders/w/fs.glsl"
		},
		"vertex_mat25": {
			"type": 35633,
			"uri": "https://vr.google.com/shaders/w/gemVS.glsl"
		},
		"fragment_mat25": {
			"type": 35632,
			"uri": "https://vr.google.com/shaders/w/gemFS.glsl"
		}
	},
	"programs": {
		"program_mat14": {
			"attributes": [
				"a_position",
				"a_normal",
				"a_color"				
			],
			"vertexShader": "vertex_mat14",
			"fragmentShader": "fragment_mat14"
		},
		"program_mat25": {
			"attributes": [
				"a_position",
				"a_normal",
				"a_color"				
			],
			"vertexShader": "vertex_mat25",
			"fragmentShader": "fragment_mat25"
		}
	},
	"techniques": {
		"technique_mat14": {
			"program": "program_mat14",
			"extras": {"gvrss" : "https://vr.google.com/shaders/w/gvrss/paper.json"},
			"parameters": {
				"position": {
					"type": 35665,
					"semantic": "POSITION"
				},
				"normal": {
					"type": 35665,
					"semantic": "NORMAL"
				},
				"color": {
					"type": 35666,
					"semantic": "COLOR"
				},
				"modelViewMatrix": {
					"type": 35676,
					"semantic": "MODELVIEW"
				},
				"projectionMatrix": {
					"type": 35676,
					"semantic": "PROJECTION"
				},
				"normalMatrix": {
					"type": 35675,
					"semantic": "MODELVIEWINVERSETRANSPOSE"
				},
				"color": {
					"type": 35666
				},
				"roughness": {
					"type": 5126
				},
				"metallic": {
					"type": 5126
				},
				"light0Pos": {
					"type": 35666
				},
				"light0Color": {
					"type": 35666
				},
				"light1Pos": {
					"type": 35666
				},
				"light1Color": {
					"type": 35666
				}				
			},
			"attributes": {
				"a_position": "position",
				"a_normal": "normal",
				"a_color": "color"				
			},
			"uniforms": {
				"u_modelViewMatrix": "modelViewMatrix",
				"u_projectionMatrix": "projectionMatrix",
				"u_normalMatrix": "normalMatrix",
				"u_color": "color",
				"u_roughness": "roughness",
				"u_metallic": "metallic",
				"u_light0Pos": "light0Pos",
				"u_light0Color": "light0Color",
				"u_light1Pos": "light1Pos",
				"u_light1Color": "light1Color"				
			},
			"states": {
				"enable": [
					2929,
					2884
				],
				"functions": {
					"cullFace": [1029]
				}
			}
		},
		"technique_mat25": {
			"program": "program_mat25",
			"extras": {"gvrss" : "https://vr.google.com/shaders/w/gvrss/gem.json"},
			"parameters": {
				"position": {
					"type": 35665,
					"semantic": "POSITION"
				},
				"normal": {
					"type": 35665,
					"semantic": "NORMAL"
				},
				"color": {
					"type": 35666,
					"semantic": "COLOR"
				},
				"modelViewMatrix": {
					"type": 35676,
					"semantic": "MODELVIEW"
				},
				"projectionMatrix": {
					"type": 35676,
					"semantic": "PROJECTION"
				},
				"normalMatrix": {
					"type": 35675,
					"semantic": "MODELVIEWINVERSETRANSPOSE"
				},
				"color": {
					"type": 35666
				},
				"roughness": {
					"type": 5126
				},
				"metallic": {
					"type": 5126
				},
				"gem": {
					"type": 35678
				},
				"light0Pos": {
					"type": 35666
				},
				"light0Color": {
					"type": 35666
				},
				"light1Pos": {
					"type": 35666
				},
				"light1Color": {
					"type": 35666
				}				
			},
			"attributes": {
				"a_position": "position",
				"a_normal": "normal",
				"a_color": "color"				
			},
			"uniforms": {
				"u_modelViewMatrix": "modelViewMatrix",
				"u_projectionMatrix": "projectionMatrix",
				"u_normalMatrix": "normalMatrix",
				"u_color": "color",
				"u_roughness": "roughness",
				"u_metallic": "metallic",
				"u_gem": "gem",
				"u_light0Pos": "light0Pos",
				"u_light0Color": "light0Color",
				"u_light1Pos": "light1Pos",
				"u_light1Color": "light1Color"				
			},
			"states": {
				"enable": [
					2929,
					2884
				],
				"functions": {
					"cullFace": [1029]
				}
			}
		}
	},
	"samplers": {
		"sampler_LINEAR_LINEAR_REPEAT": {
			"magFilter": 9729,
			"minFilter": 9987,
			"wrapS": 10497,
			"wrapT": 10497
		}
	},
	"textures": {
		"texture_mat25_gem": {
			"format": 6408,
			"internalFormat": 6408,
			"sampler": "sampler_LINEAR_LINEAR_REPEAT",
			"source": "image_mat25_gem",
			"target": 3553,
			"type": 5121
		}
	},
	"images": {
		"image_mat25_gem": {
			"uri": "https://vr.google.com/shaders/w/GemRefractions.png"
		}
	},
	"materials": {
		"material_mat14": {
			"technique": "technique_mat14",
			"values": {
				"color": [1, 0.3411765, 0.1333333, 1],
				"roughness": 0.72,
				"metallic": 0,
				"light0Pos": [-0.02, 4.11, -0.54, 0],
				"light0Color": [0.8, 0.8, 0.8, 0],
				"light1Pos": [0.02, -4.11, 0.54, 0],
				"light1Color": [0.64, 0.64, 0.64, 0]				
			},
			"name": "material_mat14"
		},
		"material_mat25": {
			"technique": "technique_mat25",
			"values": {
				"color": [1, 1, 1, 1],
				"roughness": 0.001,
				"metallic": 0,
				"gem": "texture_mat25_gem",
				"light0Pos": [-0.02, 4.11, -0.54, 0],
				"light0Color": [0.8, 0.8, 0.8, 0],
				"light1Pos": [0.02, -4.11, 0.54, 0],
				"light1Color": [0.64, 0.64, 0.64, 0]				
			},
			"name": "material_mat25"
		}
	},
	"nodes": {
		"node_MeshObject-1993868608-PolyPaper14": {
			"name": "node_MeshObject-1993868608-PolyPaper14",
			"meshes": [
				"mesh_m0-PolyPaper14_-81282"
			],
			"matrix": [1, 0, 0, 0, 0, 1, 0, 0, 0, 0, 1, 0, 0, 0, 0, 1]
		},
		"node_MeshObject1440433920-PolyGem25": {
			"name": "node_MeshObject1440433920-PolyGem25",
			"meshes": [
				"mesh_m1-PolyGem25_-45166"
			],
			"matrix": [1, 0, 0, 0, 0, 1, 0, 0, 0, 0, 1, 0, 0, 0, 0, 1]
		}
	},
	"scene": "defaultScene",
	"scenes": {
		"defaultScene": {
			"nodes": [
				"node_MeshObject-1993868608-PolyPaper14",
				"node_MeshObject1440433920-PolyGem25"
			],
			"extras": {

			}
		}
	}
}